<svg width="1920" height="960" viewBox="0 0 1920 960" xmlns="http://www.w3.org/2000/svg">
  <defs>
    <radialGradient id="glow" cx="50%" cy="50%" r="50%">
      <stop offset="0%" stop-color="#7c3aed" stop-opacity="0.25"/>
      <stop offset="100%" stop-color="#0f0f0f" stop-opacity="0"/>
    </radialGradient>
    <pattern id="dots" width="32" height="32" patternUnits="userSpaceOnUse">
      <circle cx="1" cy="1" r="1" fill="#ffffff" fill-opacity="0.06"/>
    </pattern>
  </defs>

  <!-- Background -->
  <rect width="1920" height="960" fill="#0f0f0f"/>
  <!-- Dot grid -->
  <rect width="1920" height="960" fill="url(#dots)"/>
  <!-- Glow -->
  <ellipse cx="960" cy="480" rx="700" ry="400" fill="url(#glow)"/>

  <!-- Left panel — mock plugin UI -->
  <rect x="220" y="200" width="560" height="560" rx="16" fill="#1a1a1a" stroke="#2a2a2a" stroke-width="1.5"/>
  <!-- Panel header -->
  <rect x="220" y="200" width="560" height="52" rx="16" fill="#222222"/>
  <rect x="220" y="236" width="560" height="16" fill="#222222"/>
  <circle cx="256" cy="226" r="10" fill="#7c3aed" fill-opacity="0.8"/>
  <rect x="276" y="220" width="120" height="12" rx="6" fill="#ffffff" fill-opacity="0.7"/>

  <!-- Timeline rows -->
  <rect x="248" y="276" width="16" height="16" rx="4" fill="#7c3aed" fill-opacity="0.8"/>
  <rect x="276" y="278" width="180" height="10" rx="5" fill="#ffffff" fill-opacity="0.5"/>
  <rect x="276" y="294" width="100" height="7" rx="3.5" fill="#ffffff" fill-opacity="0.2"/>
  <rect x="664" y="276" width="72" height="22" rx="6" fill="#7c3aed" fill-opacity="0.15" stroke="#7c3aed" stroke-width="1"/>
  <rect x="672" y="281" width="56" height="10" rx="5" fill="#7c3aed" fill-opacity="0.6"/>

  <rect x="248" y="320" width="16" height="16" rx="4" fill="#ffffff" fill-opacity="0.15"/>
  <rect x="276" y="322" width="140" height="10" rx="5" fill="#ffffff" fill-opacity="0.35"/>
  <rect x="276" y="338" width="90" height="7" rx="3.5" fill="#ffffff" fill-opacity="0.15"/>

  <rect x="248" y="364" width="16" height="16" rx="4" fill="#ffffff" fill-opacity="0.15"/>
  <rect x="276" y="366" width="160" height="10" rx="5" fill="#ffffff" fill-opacity="0.35"/>
  <rect x="276" y="382" width="80" height="7" rx="3.5" fill="#ffffff" fill-opacity="0.15"/>

  <!-- Separator -->
  <line x1="248" y1="414" x2="752" y2="414" stroke="#2a2a2a" stroke-width="1"/>

  <!-- Diff section -->
  <rect x="248" y="430" width="220" height="120" rx="10" fill="#7c3aed" fill-opacity="0.08" stroke="#7c3aed" stroke-width="1" stroke-opacity="0.3"/>
  <rect x="256" y="438" width="80" height="8" rx="4" fill="#a78bfa" fill-opacity="0.5"/>
  <rect x="256" y="454" width="120" height="6" rx="3" fill="#ffffff" fill-opacity="0.2"/>
  <rect x="256" y="466" width="100" height="6" rx="3" fill="#ffffff" fill-opacity="0.2"/>
  <rect x="256" y="478" width="140" height="6" rx="3" fill="#22c55e" fill-opacity="0.4"/>
  <rect x="256" y="490" width="90" height="6" rx="3" fill="#ef4444" fill-opacity="0.4"/>

  <rect x="484" y="430" width="220" height="120" rx="10" fill="#1e1e1e" stroke="#2a2a2a" stroke-width="1"/>
  <rect x="492" y="438" width="60" height="8" rx="4" fill="#ffffff" fill-opacity="0.3"/>
  <rect x="492" y="454" width="100" height="6" rx="3" fill="#ffffff" fill-opacity="0.15"/>
  <rect x="492" y="466" width="80" height="6" rx="3" fill="#ffffff" fill-opacity="0.15"/>
  <rect x="492" y="478" width="60" height="6" rx="3" fill="#ffffff" fill-opacity="0.15"/>

  <!-- AI badge -->
  <rect x="248" y="572" width="504" height="40" rx="8" fill="#7c3aed" fill-opacity="0.1" stroke="#7c3aed" stroke-width="1" stroke-opacity="0.4"/>
  <rect x="264" y="584" width="16" height="16" rx="4" fill="#7c3aed" fill-opacity="0.6"/>
  <rect x="288" y="586" width="300" height="9" rx="4.5" fill="#a78bfa" fill-opacity="0.5"/>

  <!-- Right — text content -->
  <!-- Badge -->
  <rect x="900" y="310" width="220" height="32" rx="16" fill="#7c3aed" fill-opacity="0.15" stroke="#7c3aed" stroke-width="1" stroke-opacity="0.5"/>
  <text x="1010" y="332" font-family="system-ui, -apple-system, sans-serif" font-size="13" fill="#a78bfa" text-anchor="middle" font-weight="500">Figma Plugin</text>

  <!-- Title -->
  <text x="900" y="420" font-family="system-ui, -apple-system, sans-serif" font-size="72" fill="#ffffff" font-weight="700" letter-spacing="-2">Design</text>
  <text x="900" y="508" font-family="system-ui, -apple-system, sans-serif" font-size="72" fill="#7c3aed" font-weight="700" letter-spacing="-2">Guardian</text>

  <!-- Subtitle -->
  <text x="900" y="560" font-family="system-ui, -apple-system, sans-serif" font-size="22" fill="#888888">Version control for Figma assets.</text>
  <text x="900" y="590" font-family="system-ui, -apple-system, sans-serif" font-size="22" fill="#888888">Geometric diff at 0.01px precision.</text>

  <!-- Feature pills -->
  <rect x="900" y="630" width="140" height="32" rx="16" fill="#1a1a1a" stroke="#2a2a2a" stroke-width="1"/>
  <text x="970" y="651" font-family="system-ui, -apple-system, sans-serif" font-size="13" fill="#aaaaaa" text-anchor="middle">Diff viewer</text>

  <rect x="1052" y="630" width="140" height="32" rx="16" fill="#1a1a1a" stroke="#2a2a2a" stroke-width="1"/>
  <text x="1122" y="651" font-family="system-ui, -apple-system, sans-serif" font-size="13" fill="#aaaaaa" text-anchor="middle">AI Patch Note</text>

  <rect x="1204" y="630" width="120" height="32" rx="16" fill="#1a1a1a" stroke="#2a2a2a" stroke-width="1"/>
  <text x="1264" y="651" font-family="system-ui, -apple-system, sans-serif" font-size="13" fill="#aaaaaa" text-anchor="middle">Branches</text>

  <rect x="1336" y="630" width="130" height="32" rx="16" fill="#1a1a1a" stroke="#2a2a2a" stroke-width="1"/>
  <text x="1401" y="651" font-family="system-ui, -apple-system, sans-serif" font-size="13" fill="#aaaaaa" text-anchor="middle">Gold Status</text>
</svg>
